<svg xmlns="http://www.w3.org/2000/svg" width="2340" height="1080" viewBox="0 0 2340 1080"><rect width="100%" height="100%" fill="#DDDDDD"/><path fill="#999999" d="M539.03 600.88h45.82q4.94 0 7.84 2.78 2.91 2.78 2.91 7.35v18.28H473.09v-10.13q0-3.08 1.29-6.48 1.3-3.4 4.14-6.11l54.22-54.34q6.79-6.92 12.16-13.22 5.37-6.3 8.95-12.47 3.59-6.18 5.5-12.54 1.91-6.36 1.91-13.4 0-6.42-1.85-11.3-1.85-4.88-5.25-8.21-3.39-3.33-8.15-5-4.75-1.67-10.68-1.67-5.43 0-10.07 1.54-4.63 1.55-8.21 4.33-3.58 2.78-6.05 6.48-2.47 3.71-3.71 8.15-2.09 5.68-5.43 7.54-3.33 1.85-9.63.86l-16.06-2.84q1.86-12.84 7.17-22.54 5.31-9.69 13.27-16.18 7.97-6.48 18.28-9.75 10.31-3.28 22.17-3.28 12.35 0 22.6 3.65 10.25 3.64 17.54 10.31 7.28 6.67 11.36 16.05 4.07 9.39 4.07 20.87 0 9.88-2.9 18.28t-7.78 16.06q-4.88 7.65-11.42 14.82-6.55 7.16-13.71 14.57l-40.26 41.13q5.8-1.73 11.54-2.66 5.75-.93 10.93-.93Zm97.32-97.56-16.05-2.84q1.85-12.84 7.16-22.54 5.31-9.69 13.28-16.18 7.96-6.48 18.27-9.75 10.32-3.28 22.17-3.28 12.35 0 22.29 3.52 9.95 3.52 16.99 9.76 7.04 6.24 10.8 14.63 3.77 8.4 3.77 18.16 0 8.52-1.92 15-1.91 6.49-5.49 11.3-3.58 4.82-8.89 8.16-5.31 3.33-11.98 5.55 16.05 5.07 23.96 15.44 7.9 10.37 7.9 26.06 0 13.34-4.94 23.59t-13.34 17.23q-8.4 6.97-19.45 10.55-11.05 3.59-23.4 3.59-13.46 0-23.47-3.09-10-3.09-17.41-9.14-7.41-6.05-12.6-14.82-5.18-8.77-8.89-20.25l13.46-5.56q5.31-2.22 9.94-1.18 4.63 1.05 6.73 5.01 2.23 4.32 4.88 8.52 2.66 4.2 6.36 7.47 3.71 3.27 8.71 5.31 5 2.04 11.92 2.04 7.78 0 13.58-2.53 5.81-2.54 9.7-6.61 3.89-4.08 5.8-9.08 1.92-5 1.92-10.06 0-6.43-1.36-11.67-1.36-5.25-5.68-8.96-4.33-3.7-12.42-5.8-8.08-2.1-21.67-2.1v-21.74q11.24-.12 18.65-2.1 7.41-1.97 11.79-5.49 4.39-3.52 6.12-8.46 1.73-4.94 1.73-10.87 0-12.6-7.04-19.14-7.04-6.55-18.78-6.55-5.43 0-10 1.54-4.57 1.55-8.21 4.33-3.65 2.78-6.12 6.48-2.47 3.71-3.7 8.15-2.1 5.68-5.5 7.54-3.39 1.85-9.57.86Zm147.46 58.66h54.34v-58.41q0-8.28 1.11-18.28l-55.45 76.69Zm80.89 0h22.48v17.66q0 2.47-1.6 4.26-1.61 1.79-4.57 1.79H864.7v43.6h-26.55v-43.6h-75.33q-3.09 0-5.44-1.91-2.34-1.91-2.96-4.75l-3.21-15.44 84.59-113h28.9v111.39ZM1030.56 540q0 23.34-5 40.57t-13.83 28.47q-8.83 11.23-20.87 16.73-12.04 5.5-26 5.5-13.95 0-25.87-5.5-11.92-5.5-20.69-16.73-8.77-11.24-13.71-28.47-4.94-17.23-4.94-40.57 0-23.47 4.94-40.63 4.94-17.17 13.71-28.41 8.77-11.24 20.69-16.73 11.92-5.5 25.87-5.5 13.96 0 26 5.5 12.04 5.49 20.87 16.73 8.83 11.24 13.83 28.41 5 17.16 5 40.63Zm-31.49 0q0-19.39-2.84-32.11-2.84-12.72-7.59-20.25-4.76-7.54-10.93-10.56-6.18-3.03-12.85-3.03-6.54 0-12.66 3.03-6.11 3.02-10.8 10.56-4.7 7.53-7.47 20.25-2.78 12.72-2.78 32.11t2.78 32.11q2.77 12.72 7.47 20.25 4.69 7.54 10.8 10.56 6.12 3.03 12.66 3.03 6.67 0 12.85-3.03 6.17-3.02 10.93-10.56 4.75-7.53 7.59-20.25 2.84-12.72 2.84-32.11Zm227.61 48.41-16.18 15.93-41.86-41.86-42.24 42.11-16.18-15.93 42.24-42.36-40.26-40.26 16.05-16.06 40.26 40.26 40.02-40.01 16.3 16.05-40.14 40.14 41.99 41.99Zm169.07 18.03h32.11v22.85h-98.8v-22.85h36.19V502.33q0-6.17.37-12.72l-25.69 21.49q-2.22 1.73-4.38 2.16-2.16.43-4.08.06-1.91-.37-3.39-1.29-1.49-.93-2.23-2.04l-9.63-13.22 54.46-46.31h25.07v155.98ZM1580.39 540q0 23.34-5.01 40.57-5 17.23-13.83 28.47-8.83 11.23-20.87 16.73-12.04 5.5-26 5.5-13.95 0-25.87-5.5-11.92-5.5-20.69-16.73-8.76-11.24-13.7-28.47-4.94-17.23-4.94-40.57 0-23.47 4.94-40.63 4.94-17.17 13.7-28.41 8.77-11.24 20.69-16.73 11.92-5.5 25.87-5.5 13.96 0 26 5.5 12.04 5.49 20.87 16.73 8.83 11.24 13.83 28.41 5.01 17.16 5.01 40.63Zm-31.5 0q0-19.39-2.84-32.11-2.84-12.72-7.59-20.25-4.76-7.54-10.93-10.56-6.18-3.03-12.85-3.03-6.54 0-12.65 3.03-6.12 3.02-10.81 10.56-4.69 7.53-7.47 20.25-2.78 12.72-2.78 32.11t2.78 32.11q2.78 12.72 7.47 20.25 4.69 7.54 10.81 10.56 6.11 3.03 12.65 3.03 6.67 0 12.85-3.03 6.17-3.02 10.93-10.56 4.75-7.53 7.59-20.25 2.84-12.72 2.84-32.11Zm109.3 67.43q7.53 0 13.22-2.16 5.68-2.16 9.57-5.99 3.89-3.83 5.86-9.14 1.98-5.31 1.98-11.48 0-14.7-8.15-22.23-8.15-7.54-22.48-7.54-14.32 0-22.48 7.54-8.15 7.53-8.15 22.23 0 6.17 1.98 11.48 1.98 5.31 5.87 9.14 3.89 3.83 9.57 5.99t13.21 2.16Zm0-135.73q-6.79 0-11.73 2.1t-8.21 5.62q-3.28 3.52-4.82 8.09-1.54 4.57-1.54 9.63 0 5.32 1.29 10.32 1.3 5 4.39 8.89 3.08 3.89 8.15 6.24 5.06 2.34 12.47 2.34 7.41 0 12.47-2.34 5.07-2.35 8.16-6.24 3.08-3.89 4.38-8.89 1.3-5 1.3-10.32 0-5.06-1.61-9.63-1.6-4.57-4.82-8.09-3.21-3.52-8.15-5.62t-11.73-2.1Zm30.14 64.47q16.3 5.31 24.08 16.24 7.78 10.93 7.78 26.74 0 11.86-4.51 21.49-4.51 9.63-12.66 16.42-8.15 6.8-19.57 10.5-11.43 3.71-25.26 3.71-13.83 0-25.25-3.71-11.43-3.7-19.58-10.5-8.15-6.79-12.66-16.42-4.51-9.63-4.51-21.49 0-15.81 7.78-26.74 7.79-10.93 24.09-16.24-12.97-5.43-19.45-15.44-6.49-10-6.49-24.08 0-10.13 4.14-18.89 4.14-8.77 11.55-15.26 7.41-6.48 17.72-10.12 10.31-3.65 22.66-3.65t22.66 3.65q10.32 3.64 17.73 10.12 7.41 6.49 11.54 15.26 4.14 8.76 4.14 18.89 0 14.08-6.48 24.08-6.49 10.01-19.45 15.44Zm178.58 3.83q0 23.34-5.01 40.57-5 17.23-13.83 28.47-8.83 11.23-20.87 16.73-12.04 5.5-26 5.5-13.95 0-25.87-5.5-11.92-5.5-20.69-16.73-8.76-11.24-13.7-28.47Q1736 563.34 1736 540q0-23.47 4.94-40.63 4.94-17.17 13.7-28.41 8.77-11.24 20.69-16.73 11.92-5.5 25.87-5.5 13.96 0 26 5.5 12.04 5.49 20.87 16.73 8.83 11.24 13.83 28.41 5.01 17.16 5.01 40.63Zm-31.5 0q0-19.39-2.84-32.11-2.84-12.72-7.59-20.25-4.76-7.54-10.93-10.56-6.18-3.03-12.85-3.03-6.54 0-12.65 3.03-6.12 3.02-10.81 10.56-4.69 7.53-7.47 20.25-2.78 12.72-2.78 32.11t2.78 32.11q2.78 12.72 7.47 20.25 4.69 7.54 10.81 10.56 6.11 3.03 12.65 3.03 6.67 0 12.85-3.03 6.17-3.02 10.93-10.56 4.75-7.53 7.59-20.25 2.84-12.72 2.84-32.11Z"/></svg>